solid probe_yellow_green
  facet normal 0.000000 0.000000 -1.000000
    outer loop
      vertex 0.000000 0.000000 0.000000
      vertex 0.014712 0.002926 0.000000
      vertex 0.015000 0.000000 0.000000
    endloop
  endfacet
  facet normal 0.000000 0.000000 -1.000000
    outer loop
      vertex 0.000000 0.000000 0.000000
      vertex 0.013858 0.005740 0.000000
      vertex 0.014712 0.002926 0.000000
    endloop
  endfacet
  facet normal 0.000000 0.000000 -1.000000
    outer loop
      vertex 0.000000 0.000000 0.000000
      vertex 0.012472 0.008334 0.000000
      vertex 0.013858 0.005740 0.000000
    endloop
  endfacet
  facet normal 0.000000 0.000000 -1.000000
    outer loop
      vertex 0.000000 0.000000 0.000000
      vertex 0.010607 0.010607 0.000000
      vertex 0.012472 0.008334 0.000000
    endloop
  endfacet
  facet normal 0.000000 0.000000 -1.000000
    outer loop
      vertex 0.000000 0.000000 0.000000
      vertex 0.008334 0.012472 0.000000
      vertex 0.010607 0.010607 0.000000
    endloop
  endfacet
  facet normal 0.000000 0.000000 -1.000000
    outer loop
      vertex 0.000000 0.000000 0.000000
      vertex 0.005740 0.013858 0.000000
      vertex 0.008334 0.012472 0.000000
    endloop
  endfacet
  facet normal 0.000000 0.000000 -1.000000
    outer loop
      vertex 0.000000 0.000000 0.000000
      vertex 0.002926 0.014712 0.000000
      vertex 0.005740 0.013858 0.000000
    endloop
  endfacet
  facet normal 0.000000 0.000000 -1.000000
    outer loop
      vertex 0.000000 0.000000 0.000000
      vertex 0.000000 0.015000 0.000000
      vertex 0.002926 0.014712 0.000000
    endloop
  endfacet
  facet normal 0.000000 0.000000 -1.000000
    outer loop
      vertex 0.000000 0.000000 0.000000
      vertex -0.002926 0.014712 0.000000
      vertex 0.000000 0.015000 0.000000
    endloop
  endfacet
  facet normal 0.000000 0.000000 -1.000000
    outer loop
      vertex 0.000000 0.000000 0.000000
      vertex -0.005740 0.013858 0.000000
      vertex -0.002926 0.014712 0.000000
    endloop
  endfacet
  facet normal 0.000000 0.000000 -1.000000
    outer loop
      vertex 0.000000 0.000000 0.000000
      vertex -0.008334 0.012472 0.000000
      vertex -0.005740 0.013858 0.000000
    endloop
  endfacet
  facet normal 0.000000 0.000000 -1.000000
    outer loop
      vertex 0.000000 0.000000 0.000000
      vertex -0.010607 0.010607 0.000000
      vertex -0.008334 0.012472 0.000000
    endloop
  endfacet
  facet normal 0.000000 0.000000 -1.000000
    outer loop
      vertex 0.000000 0.000000 0.000000
      vertex -0.012472 0.008334 0.000000
      vertex -0.010607 0.010607 0.000000
    endloop
  endfacet
  facet normal 0.000000 0.000000 -1.000000
    outer loop
      vertex 0.000000 0.000000 0.000000
      vertex -0.013858 0.005740 0.000000
      vertex -0.012472 0.008334 0.000000
    endloop
  endfacet
  facet normal 0.000000 0.000000 -1.000000
    outer loop
      vertex 0.000000 0.000000 0.000000
      vertex -0.014712 0.002926 0.000000
      vertex -0.013858 0.005740 0.000000
    endloop
  endfacet
  facet normal 0.000000 0.000000 -1.000000
    outer loop
      vertex 0.000000 0.000000 0.000000
      vertex -0.015000 0.000000 0.000000
      vertex -0.014712 0.002926 0.000000
    endloop
  endfacet
  facet normal -0.000000 0.000000 -1.000000
    outer loop
      vertex 0.000000 0.000000 0.000000
      vertex -0.014712 -0.002926 0.000000
      vertex -0.015000 0.000000 0.000000
    endloop
  endfacet
  facet normal 0.000000 0.000000 -1.000000
    outer loop
      vertex 0.000000 0.000000 0.000000
      vertex -0.013858 -0.005740 0.000000
      vertex -0.014712 -0.002926 0.000000
    endloop
  endfacet
  facet normal 0.000000 0.000000 -1.000000
    outer loop
      vertex 0.000000 0.000000 0.000000
      vertex -0.012472 -0.008334 0.000000
      vertex -0.013858 -0.005740 0.000000
    endloop
  endfacet
  facet normal 0.000000 0.000000 -1.000000
    outer loop
      vertex 0.000000 0.000000 0.000000
      vertex -0.010607 -0.010607 0.000000
      vertex -0.012472 -0.008334 0.000000
    endloop
  endfacet
  facet normal 0.000000 0.000000 -1.000000
    outer loop
      vertex 0.000000 0.000000 0.000000
      vertex -0.008334 -0.012472 0.000000
      vertex -0.010607 -0.010607 0.000000
    endloop
  endfacet
  facet normal 0.000000 0.000000 -1.000000
    outer loop
      vertex 0.000000 0.000000 0.000000
      vertex -0.005740 -0.013858 0.000000
      vertex -0.008334 -0.012472 0.000000
    endloop
  endfacet
  facet normal 0.000000 0.000000 -1.000000
    outer loop
      vertex 0.000000 0.000000 0.000000
      vertex -0.002926 -0.014712 0.000000
      vertex -0.005740 -0.013858 0.000000
    endloop
  endfacet
  facet normal 0.000000 0.000000 -1.000000
    outer loop
      vertex 0.000000 0.000000 0.000000
      vertex -0.000000 -0.015000 0.000000
      vertex -0.002926 -0.014712 0.000000
    endloop
  endfacet
  facet normal 0.000000 -0.000000 -1.000000
    outer loop
      vertex 0.000000 0.000000 0.000000
      vertex 0.002926 -0.014712 0.000000
      vertex -0.000000 -0.015000 0.000000
    endloop
  endfacet
  facet normal 0.000000 0.000000 -1.000000
    outer loop
      vertex 0.000000 0.000000 0.000000
      vertex 0.005740 -0.013858 0.000000
      vertex 0.002926 -0.014712 0.000000
    endloop
  endfacet
  facet normal 0.000000 0.000000 -1.000000
    outer loop
      vertex 0.000000 0.000000 0.000000
      vertex 0.008334 -0.012472 0.000000
      vertex 0.005740 -0.013858 0.000000
    endloop
  endfacet
  facet normal 0.000000 0.000000 -1.000000
    outer loop
      vertex 0.000000 0.000000 0.000000
      vertex 0.010607 -0.010607 0.000000
      vertex 0.008334 -0.012472 0.000000
    endloop
  endfacet
  facet normal 0.000000 0.000000 -1.000000
    outer loop
      vertex 0.000000 0.000000 0.000000
      vertex 0.012472 -0.008334 0.000000
      vertex 0.010607 -0.010607 0.000000
    endloop
  endfacet
  facet normal 0.000000 0.000000 -1.000000
    outer loop
      vertex 0.000000 0.000000 0.000000
      vertex 0.013858 -0.005740 0.000000
      vertex 0.012472 -0.008334 0.000000
    endloop
  endfacet
  facet normal 0.000000 0.000000 -1.000000
    outer loop
      vertex 0.000000 0.000000 0.000000
      vertex 0.014712 -0.002926 0.000000
      vertex 0.013858 -0.005740 0.000000
    endloop
  endfacet
  facet normal 0.000000 0.000000 -1.000000
    outer loop
      vertex 0.000000 0.000000 0.000000
      vertex 0.015000 0.000000 0.000000
      vertex 0.014712 -0.002926 0.000000
    endloop
  endfacet
  facet normal 0.995185 0.098017 0.000000
    outer loop
      vertex 0.015000 0.000000 0.000000
      vertex 0.014712 0.002926 0.000000
      vertex 0.014712 0.002926 0.050000
    endloop
  endfacet
  facet normal 0.995185 0.098017 -0.000000
    outer loop
      vertex 0.015000 0.000000 0.000000
      vertex 0.014712 0.002926 0.050000
      vertex 0.015000 0.000000 0.050000
    endloop
  endfacet
  facet normal 0.956940 0.290285 0.000000
    outer loop
      vertex 0.014712 0.002926 0.000000
      vertex 0.013858 0.005740 0.000000
      vertex 0.013858 0.005740 0.050000
    endloop
  endfacet
  facet normal 0.956940 0.290285 -0.000000
    outer loop
      vertex 0.014712 0.002926 0.000000
      vertex 0.013858 0.005740 0.050000
      vertex 0.014712 0.002926 0.050000
    endloop
  endfacet
  facet normal 0.881921 0.471397 0.000000
    outer loop
      vertex 0.013858 0.005740 0.000000
      vertex 0.012472 0.008334 0.000000
      vertex 0.012472 0.008334 0.050000
    endloop
  endfacet
  facet normal 0.881921 0.471397 -0.000000
    outer loop
      vertex 0.013858 0.005740 0.000000
      vertex 0.012472 0.008334 0.050000
      vertex 0.013858 0.005740 0.050000
    endloop
  endfacet
  facet normal 0.773010 0.634393 0.000000
    outer loop
      vertex 0.012472 0.008334 0.000000
      vertex 0.010607 0.010607 0.000000
      vertex 0.010607 0.010607 0.050000
    endloop
  endfacet
  facet normal 0.773010 0.634393 -0.000000
    outer loop
      vertex 0.012472 0.008334 0.000000
      vertex 0.010607 0.010607 0.050000
      vertex 0.012472 0.008334 0.050000
    endloop
  endfacet
  facet normal 0.634393 0.773010 0.000000
    outer loop
      vertex 0.010607 0.010607 0.000000
      vertex 0.008334 0.012472 0.000000
      vertex 0.008334 0.012472 0.050000
    endloop
  endfacet
  facet normal 0.634393 0.773010 -0.000000
    outer loop
      vertex 0.010607 0.010607 0.000000
      vertex 0.008334 0.012472 0.050000
      vertex 0.010607 0.010607 0.050000
    endloop
  endfacet
  facet normal 0.471397 0.881921 0.000000
    outer loop
      vertex 0.008334 0.012472 0.000000
      vertex 0.005740 0.013858 0.000000
      vertex 0.005740 0.013858 0.050000
    endloop
  endfacet
  facet normal 0.471397 0.881921 -0.000000
    outer loop
      vertex 0.008334 0.012472 0.000000
      vertex 0.005740 0.013858 0.050000
      vertex 0.008334 0.012472 0.050000
    endloop
  endfacet
  facet normal 0.290285 0.956940 0.000000
    outer loop
      vertex 0.005740 0.013858 0.000000
      vertex 0.002926 0.014712 0.000000
      vertex 0.002926 0.014712 0.050000
    endloop
  endfacet
  facet normal 0.290285 0.956940 -0.000000
    outer loop
      vertex 0.005740 0.013858 0.000000
      vertex 0.002926 0.014712 0.050000
      vertex 0.005740 0.013858 0.050000
    endloop
  endfacet
  facet normal 0.098017 0.995185 0.000000
    outer loop
      vertex 0.002926 0.014712 0.000000
      vertex 0.000000 0.015000 0.000000
      vertex 0.000000 0.015000 0.050000
    endloop
  endfacet
  facet normal 0.098017 0.995185 -0.000000
    outer loop
      vertex 0.002926 0.014712 0.000000
      vertex 0.000000 0.015000 0.050000
      vertex 0.002926 0.014712 0.050000
    endloop
  endfacet
  facet normal -0.098017 0.995185 0.000000
    outer loop
      vertex 0.000000 0.015000 0.000000
      vertex -0.002926 0.014712 0.000000
      vertex -0.002926 0.014712 0.050000
    endloop
  endfacet
  facet normal -0.098017 0.995185 0.000000
    outer loop
      vertex 0.000000 0.015000 0.000000
      vertex -0.002926 0.014712 0.050000
      vertex 0.000000 0.015000 0.050000
    endloop
  endfacet
  facet normal -0.290285 0.956940 0.000000
    outer loop
      vertex -0.002926 0.014712 0.000000
      vertex -0.005740 0.013858 0.000000
      vertex -0.005740 0.013858 0.050000
    endloop
  endfacet
  facet normal -0.290285 0.956940 0.000000
    outer loop
      vertex -0.002926 0.014712 0.000000
      vertex -0.005740 0.013858 0.050000
      vertex -0.002926 0.014712 0.050000
    endloop
  endfacet
  facet normal -0.471397 0.881921 0.000000
    outer loop
      vertex -0.005740 0.013858 0.000000
      vertex -0.008334 0.012472 0.000000
      vertex -0.008334 0.012472 0.050000
    endloop
  endfacet
  facet normal -0.471397 0.881921 0.000000
    outer loop
      vertex -0.005740 0.013858 0.000000
      vertex -0.008334 0.012472 0.050000
      vertex -0.005740 0.013858 0.050000
    endloop
  endfacet
  facet normal -0.634393 0.773010 0.000000
    outer loop
      vertex -0.008334 0.012472 0.000000
      vertex -0.010607 0.010607 0.000000
      vertex -0.010607 0.010607 0.050000
    endloop
  endfacet
  facet normal -0.634393 0.773010 0.000000
    outer loop
      vertex -0.008334 0.012472 0.000000
      vertex -0.010607 0.010607 0.050000
      vertex -0.008334 0.012472 0.050000
    endloop
  endfacet
  facet normal -0.773010 0.634393 0.000000
    outer loop
      vertex -0.010607 0.010607 0.000000
      vertex -0.012472 0.008334 0.000000
      vertex -0.012472 0.008334 0.050000
    endloop
  endfacet
  facet normal -0.773010 0.634393 0.000000
    outer loop
      vertex -0.010607 0.010607 0.000000
      vertex -0.012472 0.008334 0.050000
      vertex -0.010607 0.010607 0.050000
    endloop
  endfacet
  facet normal -0.881921 0.471397 0.000000
    outer loop
      vertex -0.012472 0.008334 0.000000
      vertex -0.013858 0.005740 0.000000
      vertex -0.013858 0.005740 0.050000
    endloop
  endfacet
  facet normal -0.881921 0.471397 0.000000
    outer loop
      vertex -0.012472 0.008334 0.000000
      vertex -0.013858 0.005740 0.050000
      vertex -0.012472 0.008334 0.050000
    endloop
  endfacet
  facet normal -0.956940 0.290285 0.000000
    outer loop
      vertex -0.013858 0.005740 0.000000
      vertex -0.014712 0.002926 0.000000
      vertex -0.014712 0.002926 0.050000
    endloop
  endfacet
  facet normal -0.956940 0.290285 0.000000
    outer loop
      vertex -0.013858 0.005740 0.000000
      vertex -0.014712 0.002926 0.050000
      vertex -0.013858 0.005740 0.050000
    endloop
  endfacet
  facet normal -0.995185 0.098017 0.000000
    outer loop
      vertex -0.014712 0.002926 0.000000
      vertex -0.015000 0.000000 0.000000
      vertex -0.015000 0.000000 0.050000
    endloop
  endfacet
  facet normal -0.995185 0.098017 0.000000
    outer loop
      vertex -0.014712 0.002926 0.000000
      vertex -0.015000 0.000000 0.050000
      vertex -0.014712 0.002926 0.050000
    endloop
  endfacet
  facet normal -0.995185 -0.098017 0.000000
    outer loop
      vertex -0.015000 0.000000 0.000000
      vertex -0.014712 -0.002926 0.000000
      vertex -0.014712 -0.002926 0.050000
    endloop
  endfacet
  facet normal -0.995185 -0.098017 0.000000
    outer loop
      vertex -0.015000 0.000000 0.000000
      vertex -0.014712 -0.002926 0.050000
      vertex -0.015000 0.000000 0.050000
    endloop
  endfacet
  facet normal -0.956940 -0.290285 0.000000
    outer loop
      vertex -0.014712 -0.002926 0.000000
      vertex -0.013858 -0.005740 0.000000
      vertex -0.013858 -0.005740 0.050000
    endloop
  endfacet
  facet normal -0.956940 -0.290285 0.000000
    outer loop
      vertex -0.014712 -0.002926 0.000000
      vertex -0.013858 -0.005740 0.050000
      vertex -0.014712 -0.002926 0.050000
    endloop
  endfacet
  facet normal -0.881921 -0.471397 0.000000
    outer loop
      vertex -0.013858 -0.005740 0.000000
      vertex -0.012472 -0.008334 0.000000
      vertex -0.012472 -0.008334 0.050000
    endloop
  endfacet
  facet normal -0.881921 -0.471397 0.000000
    outer loop
      vertex -0.013858 -0.005740 0.000000
      vertex -0.012472 -0.008334 0.050000
      vertex -0.013858 -0.005740 0.050000
    endloop
  endfacet
  facet normal -0.773010 -0.634393 0.000000
    outer loop
      vertex -0.012472 -0.008334 0.000000
      vertex -0.010607 -0.010607 0.000000
      vertex -0.010607 -0.010607 0.050000
    endloop
  endfacet
  facet normal -0.773010 -0.634393 0.000000
    outer loop
      vertex -0.012472 -0.008334 0.000000
      vertex -0.010607 -0.010607 0.050000
      vertex -0.012472 -0.008334 0.050000
    endloop
  endfacet
  facet normal -0.634393 -0.773010 0.000000
    outer loop
      vertex -0.010607 -0.010607 0.000000
      vertex -0.008334 -0.012472 0.000000
      vertex -0.008334 -0.012472 0.050000
    endloop
  endfacet
  facet normal -0.634393 -0.773010 0.000000
    outer loop
      vertex -0.010607 -0.010607 0.000000
      vertex -0.008334 -0.012472 0.050000
      vertex -0.010607 -0.010607 0.050000
    endloop
  endfacet
  facet normal -0.471397 -0.881921 0.000000
    outer loop
      vertex -0.008334 -0.012472 0.000000
      vertex -0.005740 -0.013858 0.000000
      vertex -0.005740 -0.013858 0.050000
    endloop
  endfacet
  facet normal -0.471397 -0.881921 0.000000
    outer loop
      vertex -0.008334 -0.012472 0.000000
      vertex -0.005740 -0.013858 0.050000
      vertex -0.008334 -0.012472 0.050000
    endloop
  endfacet
  facet normal -0.290285 -0.956940 0.000000
    outer loop
      vertex -0.005740 -0.013858 0.000000
      vertex -0.002926 -0.014712 0.000000
      vertex -0.002926 -0.014712 0.050000
    endloop
  endfacet
  facet normal -0.290285 -0.956940 0.000000
    outer loop
      vertex -0.005740 -0.013858 0.000000
      vertex -0.002926 -0.014712 0.050000
      vertex -0.005740 -0.013858 0.050000
    endloop
  endfacet
  facet normal -0.098017 -0.995185 0.000000
    outer loop
      vertex -0.002926 -0.014712 0.000000
      vertex -0.000000 -0.015000 0.000000
      vertex -0.000000 -0.015000 0.050000
    endloop
  endfacet
  facet normal -0.098017 -0.995185 0.000000
    outer loop
      vertex -0.002926 -0.014712 0.000000
      vertex -0.000000 -0.015000 0.050000
      vertex -0.002926 -0.014712 0.050000
    endloop
  endfacet
  facet normal 0.098017 -0.995185 0.000000
    outer loop
      vertex -0.000000 -0.015000 0.000000
      vertex 0.002926 -0.014712 0.000000
      vertex 0.002926 -0.014712 0.050000
    endloop
  endfacet
  facet normal 0.098017 -0.995185 0.000000
    outer loop
      vertex -0.000000 -0.015000 0.000000
      vertex 0.002926 -0.014712 0.050000
      vertex -0.000000 -0.015000 0.050000
    endloop
  endfacet
  facet normal 0.290285 -0.956940 0.000000
    outer loop
      vertex 0.002926 -0.014712 0.000000
      vertex 0.005740 -0.013858 0.000000
      vertex 0.005740 -0.013858 0.050000
    endloop
  endfacet
  facet normal 0.290285 -0.956940 0.000000
    outer loop
      vertex 0.002926 -0.014712 0.000000
      vertex 0.005740 -0.013858 0.050000
      vertex 0.002926 -0.014712 0.050000
    endloop
  endfacet
  facet normal 0.471397 -0.881921 0.000000
    outer loop
      vertex 0.005740 -0.013858 0.000000
      vertex 0.008334 -0.012472 0.000000
      vertex 0.008334 -0.012472 0.050000
    endloop
  endfacet
  facet normal 0.471397 -0.881921 0.000000
    outer loop
      vertex 0.005740 -0.013858 0.000000
      vertex 0.008334 -0.012472 0.050000
      vertex 0.005740 -0.013858 0.050000
    endloop
  endfacet
  facet normal 0.634393 -0.773010 0.000000
    outer loop
      vertex 0.008334 -0.012472 0.000000
      vertex 0.010607 -0.010607 0.000000
      vertex 0.010607 -0.010607 0.050000
    endloop
  endfacet
  facet normal 0.634393 -0.773010 0.000000
    outer loop
      vertex 0.008334 -0.012472 0.000000
      vertex 0.010607 -0.010607 0.050000
      vertex 0.008334 -0.012472 0.050000
    endloop
  endfacet
  facet normal 0.773010 -0.634393 0.000000
    outer loop
      vertex 0.010607 -0.010607 0.000000
      vertex 0.012472 -0.008334 0.000000
      vertex 0.012472 -0.008334 0.050000
    endloop
  endfacet
  facet normal 0.773010 -0.634393 0.000000
    outer loop
      vertex 0.010607 -0.010607 0.000000
      vertex 0.012472 -0.008334 0.050000
      vertex 0.010607 -0.010607 0.050000
    endloop
  endfacet
  facet normal 0.881921 -0.471397 0.000000
    outer loop
      vertex 0.012472 -0.008334 0.000000
      vertex 0.013858 -0.005740 0.000000
      vertex 0.013858 -0.005740 0.050000
    endloop
  endfacet
  facet normal 0.881921 -0.471397 0.000000
    outer loop
      vertex 0.012472 -0.008334 0.000000
      vertex 0.013858 -0.005740 0.050000
      vertex 0.012472 -0.008334 0.050000
    endloop
  endfacet
  facet normal 0.956940 -0.290285 0.000000
    outer loop
      vertex 0.013858 -0.005740 0.000000
      vertex 0.014712 -0.002926 0.000000
      vertex 0.014712 -0.002926 0.050000
    endloop
  endfacet
  facet normal 0.956940 -0.290285 0.000000
    outer loop
      vertex 0.013858 -0.005740 0.000000
      vertex 0.014712 -0.002926 0.050000
      vertex 0.013858 -0.005740 0.050000
    endloop
  endfacet
  facet normal 0.995185 -0.098017 0.000000
    outer loop
      vertex 0.014712 -0.002926 0.000000
      vertex 0.015000 0.000000 0.000000
      vertex 0.015000 0.000000 0.050000
    endloop
  endfacet
  facet normal 0.995185 -0.098017 0.000000
    outer loop
      vertex 0.014712 -0.002926 0.000000
      vertex 0.015000 0.000000 0.050000
      vertex 0.014712 -0.002926 0.050000
    endloop
  endfacet
  facet normal 0.000000 0.000000 1.000000
    outer loop
      vertex 0.015000 0.000000 0.050000
      vertex 0.014712 0.002926 0.050000
      vertex 0.009808 0.001951 0.050000
    endloop
  endfacet
  facet normal 0.000000 0.000000 1.000000
    outer loop
      vertex 0.015000 0.000000 0.050000
      vertex 0.009808 0.001951 0.050000
      vertex 0.010000 0.000000 0.050000
    endloop
  endfacet
  facet normal 0.000000 0.000000 1.000000
    outer loop
      vertex 0.014712 0.002926 0.050000
      vertex 0.013858 0.005740 0.050000
      vertex 0.009239 0.003827 0.050000
    endloop
  endfacet
  facet normal 0.000000 0.000000 1.000000
    outer loop
      vertex 0.014712 0.002926 0.050000
      vertex 0.009239 0.003827 0.050000
      vertex 0.009808 0.001951 0.050000
    endloop
  endfacet
  facet normal 0.000000 0.000000 1.000000
    outer loop
      vertex 0.013858 0.005740 0.050000
      vertex 0.012472 0.008334 0.050000
      vertex 0.008315 0.005556 0.050000
    endloop
  endfacet
  facet normal 0.000000 0.000000 1.000000
    outer loop
      vertex 0.013858 0.005740 0.050000
      vertex 0.008315 0.005556 0.050000
      vertex 0.009239 0.003827 0.050000
    endloop
  endfacet
  facet normal 0.000000 0.000000 1.000000
    outer loop
      vertex 0.012472 0.008334 0.050000
      vertex 0.010607 0.010607 0.050000
      vertex 0.007071 0.007071 0.050000
    endloop
  endfacet
  facet normal 0.000000 0.000000 1.000000
    outer loop
      vertex 0.012472 0.008334 0.050000
      vertex 0.007071 0.007071 0.050000
      vertex 0.008315 0.005556 0.050000
    endloop
  endfacet
  facet normal 0.000000 0.000000 1.000000
    outer loop
      vertex 0.010607 0.010607 0.050000
      vertex 0.008334 0.012472 0.050000
      vertex 0.005556 0.008315 0.050000
    endloop
  endfacet
  facet normal 0.000000 0.000000 1.000000
    outer loop
      vertex 0.010607 0.010607 0.050000
      vertex 0.005556 0.008315 0.050000
      vertex 0.007071 0.007071 0.050000
    endloop
  endfacet
  facet normal 0.000000 0.000000 1.000000
    outer loop
      vertex 0.008334 0.012472 0.050000
      vertex 0.005740 0.013858 0.050000
      vertex 0.003827 0.009239 0.050000
    endloop
  endfacet
  facet normal 0.000000 0.000000 1.000000
    outer loop
      vertex 0.008334 0.012472 0.050000
      vertex 0.003827 0.009239 0.050000
      vertex 0.005556 0.008315 0.050000
    endloop
  endfacet
  facet normal 0.000000 0.000000 1.000000
    outer loop
      vertex 0.005740 0.013858 0.050000
      vertex 0.002926 0.014712 0.050000
      vertex 0.001951 0.009808 0.050000
    endloop
  endfacet
  facet normal 0.000000 0.000000 1.000000
    outer loop
      vertex 0.005740 0.013858 0.050000
      vertex 0.001951 0.009808 0.050000
      vertex 0.003827 0.009239 0.050000
    endloop
  endfacet
  facet normal 0.000000 0.000000 1.000000
    outer loop
      vertex 0.002926 0.014712 0.050000
      vertex 0.000000 0.015000 0.050000
      vertex 0.000000 0.010000 0.050000
    endloop
  endfacet
  facet normal 0.000000 0.000000 1.000000
    outer loop
      vertex 0.002926 0.014712 0.050000
      vertex 0.000000 0.010000 0.050000
      vertex 0.001951 0.009808 0.050000
    endloop
  endfacet
  facet normal 0.000000 0.000000 1.000000
    outer loop
      vertex 0.000000 0.015000 0.050000
      vertex -0.002926 0.014712 0.050000
      vertex -0.001951 0.009808 0.050000
    endloop
  endfacet
  facet normal 0.000000 0.000000 1.000000
    outer loop
      vertex 0.000000 0.015000 0.050000
      vertex -0.001951 0.009808 0.050000
      vertex 0.000000 0.010000 0.050000
    endloop
  endfacet
  facet normal 0.000000 0.000000 1.000000
    outer loop
      vertex -0.002926 0.014712 0.050000
      vertex -0.005740 0.013858 0.050000
      vertex -0.003827 0.009239 0.050000
    endloop
  endfacet
  facet normal 0.000000 0.000000 1.000000
    outer loop
      vertex -0.002926 0.014712 0.050000
      vertex -0.003827 0.009239 0.050000
      vertex -0.001951 0.009808 0.050000
    endloop
  endfacet
  facet normal 0.000000 0.000000 1.000000
    outer loop
      vertex -0.005740 0.013858 0.050000
      vertex -0.008334 0.012472 0.050000
      vertex -0.005556 0.008315 0.050000
    endloop
  endfacet
  facet normal 0.000000 0.000000 1.000000
    outer loop
      vertex -0.005740 0.013858 0.050000
      vertex -0.005556 0.008315 0.050000
      vertex -0.003827 0.009239 0.050000
    endloop
  endfacet
  facet normal 0.000000 0.000000 1.000000
    outer loop
      vertex -0.008334 0.012472 0.050000
      vertex -0.010607 0.010607 0.050000
      vertex -0.007071 0.007071 0.050000
    endloop
  endfacet
  facet normal 0.000000 0.000000 1.000000
    outer loop
      vertex -0.008334 0.012472 0.050000
      vertex -0.007071 0.007071 0.050000
      vertex -0.005556 0.008315 0.050000
    endloop
  endfacet
  facet normal 0.000000 0.000000 1.000000
    outer loop
      vertex -0.010607 0.010607 0.050000
      vertex -0.012472 0.008334 0.050000
      vertex -0.008315 0.005556 0.050000
    endloop
  endfacet
  facet normal 0.000000 0.000000 1.000000
    outer loop
      vertex -0.010607 0.010607 0.050000
      vertex -0.008315 0.005556 0.050000
      vertex -0.007071 0.007071 0.050000
    endloop
  endfacet
  facet normal 0.000000 0.000000 1.000000
    outer loop
      vertex -0.012472 0.008334 0.050000
      vertex -0.013858 0.005740 0.050000
      vertex -0.009239 0.003827 0.050000
    endloop
  endfacet
  facet normal 0.000000 0.000000 1.000000
    outer loop
      vertex -0.012472 0.008334 0.050000
      vertex -0.009239 0.003827 0.050000
      vertex -0.008315 0.005556 0.050000
    endloop
  endfacet
  facet normal 0.000000 0.000000 1.000000
    outer loop
      vertex -0.013858 0.005740 0.050000
      vertex -0.014712 0.002926 0.050000
      vertex -0.009808 0.001951 0.050000
    endloop
  endfacet
  facet normal 0.000000 0.000000 1.000000
    outer loop
      vertex -0.013858 0.005740 0.050000
      vertex -0.009808 0.001951 0.050000
      vertex -0.009239 0.003827 0.050000
    endloop
  endfacet
  facet normal 0.000000 0.000000 1.000000
    outer loop
      vertex -0.014712 0.002926 0.050000
      vertex -0.015000 0.000000 0.050000
      vertex -0.010000 0.000000 0.050000
    endloop
  endfacet
  facet normal 0.000000 0.000000 1.000000
    outer loop
      vertex -0.014712 0.002926 0.050000
      vertex -0.010000 0.000000 0.050000
      vertex -0.009808 0.001951 0.050000
    endloop
  endfacet
  facet normal 0.000000 0.000000 1.000000
    outer loop
      vertex -0.015000 0.000000 0.050000
      vertex -0.014712 -0.002926 0.050000
      vertex -0.009808 -0.001951 0.050000
    endloop
  endfacet
  facet normal 0.000000 0.000000 1.000000
    outer loop
      vertex -0.015000 0.000000 0.050000
      vertex -0.009808 -0.001951 0.050000
      vertex -0.010000 0.000000 0.050000
    endloop
  endfacet
  facet normal 0.000000 0.000000 1.000000
    outer loop
      vertex -0.014712 -0.002926 0.050000
      vertex -0.013858 -0.005740 0.050000
      vertex -0.009239 -0.003827 0.050000
    endloop
  endfacet
  facet normal -0.000000 0.000000 1.000000
    outer loop
      vertex -0.014712 -0.002926 0.050000
      vertex -0.009239 -0.003827 0.050000
      vertex -0.009808 -0.001951 0.050000
    endloop
  endfacet
  facet normal -0.000000 0.000000 1.000000
    outer loop
      vertex -0.013858 -0.005740 0.050000
      vertex -0.012472 -0.008334 0.050000
      vertex -0.008315 -0.005556 0.050000
    endloop
  endfacet
  facet normal 0.000000 0.000000 1.000000
    outer loop
      vertex -0.013858 -0.005740 0.050000
      vertex -0.008315 -0.005556 0.050000
      vertex -0.009239 -0.003827 0.050000
    endloop
  endfacet
  facet normal -0.000000 0.000000 1.000000
    outer loop
      vertex -0.012472 -0.008334 0.050000
      vertex -0.010607 -0.010607 0.050000
      vertex -0.007071 -0.007071 0.050000
    endloop
  endfacet
  facet normal 0.000000 0.000000 1.000000
    outer loop
      vertex -0.012472 -0.008334 0.050000
      vertex -0.007071 -0.007071 0.050000
      vertex -0.008315 -0.005556 0.050000
    endloop
  endfacet
  facet normal -0.000000 0.000000 1.000000
    outer loop
      vertex -0.010607 -0.010607 0.050000
      vertex -0.008334 -0.012472 0.050000
      vertex -0.005556 -0.008315 0.050000
    endloop
  endfacet
  facet normal 0.000000 0.000000 1.000000
    outer loop
      vertex -0.010607 -0.010607 0.050000
      vertex -0.005556 -0.008315 0.050000
      vertex -0.007071 -0.007071 0.050000
    endloop
  endfacet
  facet normal -0.000000 0.000000 1.000000
    outer loop
      vertex -0.008334 -0.012472 0.050000
      vertex -0.005740 -0.013858 0.050000
      vertex -0.003827 -0.009239 0.050000
    endloop
  endfacet
  facet normal 0.000000 0.000000 1.000000
    outer loop
      vertex -0.008334 -0.012472 0.050000
      vertex -0.003827 -0.009239 0.050000
      vertex -0.005556 -0.008315 0.050000
    endloop
  endfacet
  facet normal -0.000000 0.000000 1.000000
    outer loop
      vertex -0.005740 -0.013858 0.050000
      vertex -0.002926 -0.014712 0.050000
      vertex -0.001951 -0.009808 0.050000
    endloop
  endfacet
  facet normal 0.000000 0.000000 1.000000
    outer loop
      vertex -0.005740 -0.013858 0.050000
      vertex -0.001951 -0.009808 0.050000
      vertex -0.003827 -0.009239 0.050000
    endloop
  endfacet
  facet normal -0.000000 0.000000 1.000000
    outer loop
      vertex -0.002926 -0.014712 0.050000
      vertex -0.000000 -0.015000 0.050000
      vertex -0.000000 -0.010000 0.050000
    endloop
  endfacet
  facet normal 0.000000 0.000000 1.000000
    outer loop
      vertex -0.002926 -0.014712 0.050000
      vertex -0.000000 -0.010000 0.050000
      vertex -0.001951 -0.009808 0.050000
    endloop
  endfacet
  facet normal 0.000000 0.000000 1.000000
    outer loop
      vertex -0.000000 -0.015000 0.050000
      vertex 0.002926 -0.014712 0.050000
      vertex 0.001951 -0.009808 0.050000
    endloop
  endfacet
  facet normal 0.000000 0.000000 1.000000
    outer loop
      vertex -0.000000 -0.015000 0.050000
      vertex 0.001951 -0.009808 0.050000
      vertex -0.000000 -0.010000 0.050000
    endloop
  endfacet
  facet normal 0.000000 0.000000 1.000000
    outer loop
      vertex 0.002926 -0.014712 0.050000
      vertex 0.005740 -0.013858 0.050000
      vertex 0.003827 -0.009239 0.050000
    endloop
  endfacet
  facet normal 0.000000 -0.000000 1.000000
    outer loop
      vertex 0.002926 -0.014712 0.050000
      vertex 0.003827 -0.009239 0.050000
      vertex 0.001951 -0.009808 0.050000
    endloop
  endfacet
  facet normal 0.000000 -0.000000 1.000000
    outer loop
      vertex 0.005740 -0.013858 0.050000
      vertex 0.008334 -0.012472 0.050000
      vertex 0.005556 -0.008315 0.050000
    endloop
  endfacet
  facet normal 0.000000 0.000000 1.000000
    outer loop
      vertex 0.005740 -0.013858 0.050000
      vertex 0.005556 -0.008315 0.050000
      vertex 0.003827 -0.009239 0.050000
    endloop
  endfacet
  facet normal 0.000000 -0.000000 1.000000
    outer loop
      vertex 0.008334 -0.012472 0.050000
      vertex 0.010607 -0.010607 0.050000
      vertex 0.007071 -0.007071 0.050000
    endloop
  endfacet
  facet normal 0.000000 0.000000 1.000000
    outer loop
      vertex 0.008334 -0.012472 0.050000
      vertex 0.007071 -0.007071 0.050000
      vertex 0.005556 -0.008315 0.050000
    endloop
  endfacet
  facet normal 0.000000 -0.000000 1.000000
    outer loop
      vertex 0.010607 -0.010607 0.050000
      vertex 0.012472 -0.008334 0.050000
      vertex 0.008315 -0.005556 0.050000
    endloop
  endfacet
  facet normal 0.000000 0.000000 1.000000
    outer loop
      vertex 0.010607 -0.010607 0.050000
      vertex 0.008315 -0.005556 0.050000
      vertex 0.007071 -0.007071 0.050000
    endloop
  endfacet
  facet normal 0.000000 -0.000000 1.000000
    outer loop
      vertex 0.012472 -0.008334 0.050000
      vertex 0.013858 -0.005740 0.050000
      vertex 0.009239 -0.003827 0.050000
    endloop
  endfacet
  facet normal 0.000000 0.000000 1.000000
    outer loop
      vertex 0.012472 -0.008334 0.050000
      vertex 0.009239 -0.003827 0.050000
      vertex 0.008315 -0.005556 0.050000
    endloop
  endfacet
  facet normal 0.000000 -0.000000 1.000000
    outer loop
      vertex 0.013858 -0.005740 0.050000
      vertex 0.014712 -0.002926 0.050000
      vertex 0.009808 -0.001951 0.050000
    endloop
  endfacet
  facet normal 0.000000 0.000000 1.000000
    outer loop
      vertex 0.013858 -0.005740 0.050000
      vertex 0.009808 -0.001951 0.050000
      vertex 0.009239 -0.003827 0.050000
    endloop
  endfacet
  facet normal 0.000000 -0.000000 1.000000
    outer loop
      vertex 0.014712 -0.002926 0.050000
      vertex 0.015000 0.000000 0.050000
      vertex 0.010000 0.000000 0.050000
    endloop
  endfacet
  facet normal 0.000000 0.000000 1.000000
    outer loop
      vertex 0.014712 -0.002926 0.050000
      vertex 0.010000 0.000000 0.050000
      vertex 0.009808 -0.001951 0.050000
    endloop
  endfacet
  facet normal 0.995185 0.098017 0.000000
    outer loop
      vertex 0.010000 0.000000 0.050000
      vertex 0.009808 0.001951 0.050000
      vertex 0.009808 0.001951 0.160000
    endloop
  endfacet
  facet normal 0.995185 0.098017 -0.000000
    outer loop
      vertex 0.010000 0.000000 0.050000
      vertex 0.009808 0.001951 0.160000
      vertex 0.010000 0.000000 0.160000
    endloop
  endfacet
  facet normal 0.956940 0.290285 0.000000
    outer loop
      vertex 0.009808 0.001951 0.050000
      vertex 0.009239 0.003827 0.050000
      vertex 0.009239 0.003827 0.160000
    endloop
  endfacet
  facet normal 0.956940 0.290285 -0.000000
    outer loop
      vertex 0.009808 0.001951 0.050000
      vertex 0.009239 0.003827 0.160000
      vertex 0.009808 0.001951 0.160000
    endloop
  endfacet
  facet normal 0.881921 0.471397 0.000000
    outer loop
      vertex 0.009239 0.003827 0.050000
      vertex 0.008315 0.005556 0.050000
      vertex 0.008315 0.005556 0.160000
    endloop
  endfacet
  facet normal 0.881921 0.471397 -0.000000
    outer loop
      vertex 0.009239 0.003827 0.050000
      vertex 0.008315 0.005556 0.160000
      vertex 0.009239 0.003827 0.160000
    endloop
  endfacet
  facet normal 0.773010 0.634393 0.000000
    outer loop
      vertex 0.008315 0.005556 0.050000
      vertex 0.007071 0.007071 0.050000
      vertex 0.007071 0.007071 0.160000
    endloop
  endfacet
  facet normal 0.773010 0.634393 -0.000000
    outer loop
      vertex 0.008315 0.005556 0.050000
      vertex 0.007071 0.007071 0.160000
      vertex 0.008315 0.005556 0.160000
    endloop
  endfacet
  facet normal 0.634393 0.773010 0.000000
    outer loop
      vertex 0.007071 0.007071 0.050000
      vertex 0.005556 0.008315 0.050000
      vertex 0.005556 0.008315 0.160000
    endloop
  endfacet
  facet normal 0.634393 0.773010 -0.000000
    outer loop
      vertex 0.007071 0.007071 0.050000
      vertex 0.005556 0.008315 0.160000
      vertex 0.007071 0.007071 0.160000
    endloop
  endfacet
  facet normal 0.471397 0.881921 0.000000
    outer loop
      vertex 0.005556 0.008315 0.050000
      vertex 0.003827 0.009239 0.050000
      vertex 0.003827 0.009239 0.160000
    endloop
  endfacet
  facet normal 0.471397 0.881921 -0.000000
    outer loop
      vertex 0.005556 0.008315 0.050000
      vertex 0.003827 0.009239 0.160000
      vertex 0.005556 0.008315 0.160000
    endloop
  endfacet
  facet normal 0.290285 0.956940 0.000000
    outer loop
      vertex 0.003827 0.009239 0.050000
      vertex 0.001951 0.009808 0.050000
      vertex 0.001951 0.009808 0.160000
    endloop
  endfacet
  facet normal 0.290285 0.956940 -0.000000
    outer loop
      vertex 0.003827 0.009239 0.050000
      vertex 0.001951 0.009808 0.160000
      vertex 0.003827 0.009239 0.160000
    endloop
  endfacet
  facet normal 0.098017 0.995185 0.000000
    outer loop
      vertex 0.001951 0.009808 0.050000
      vertex 0.000000 0.010000 0.050000
      vertex 0.000000 0.010000 0.160000
    endloop
  endfacet
  facet normal 0.098017 0.995185 -0.000000
    outer loop
      vertex 0.001951 0.009808 0.050000
      vertex 0.000000 0.010000 0.160000
      vertex 0.001951 0.009808 0.160000
    endloop
  endfacet
  facet normal -0.098017 0.995185 0.000000
    outer loop
      vertex 0.000000 0.010000 0.050000
      vertex -0.001951 0.009808 0.050000
      vertex -0.001951 0.009808 0.160000
    endloop
  endfacet
  facet normal -0.098017 0.995185 0.000000
    outer loop
      vertex 0.000000 0.010000 0.050000
      vertex -0.001951 0.009808 0.160000
      vertex 0.000000 0.010000 0.160000
    endloop
  endfacet
  facet normal -0.290285 0.956940 0.000000
    outer loop
      vertex -0.001951 0.009808 0.050000
      vertex -0.003827 0.009239 0.050000
      vertex -0.003827 0.009239 0.160000
    endloop
  endfacet
  facet normal -0.290285 0.956940 0.000000
    outer loop
      vertex -0.001951 0.009808 0.050000
      vertex -0.003827 0.009239 0.160000
      vertex -0.001951 0.009808 0.160000
    endloop
  endfacet
  facet normal -0.471397 0.881921 0.000000
    outer loop
      vertex -0.003827 0.009239 0.050000
      vertex -0.005556 0.008315 0.050000
      vertex -0.005556 0.008315 0.160000
    endloop
  endfacet
  facet normal -0.471397 0.881921 0.000000
    outer loop
      vertex -0.003827 0.009239 0.050000
      vertex -0.005556 0.008315 0.160000
      vertex -0.003827 0.009239 0.160000
    endloop
  endfacet
  facet normal -0.634393 0.773010 0.000000
    outer loop
      vertex -0.005556 0.008315 0.050000
      vertex -0.007071 0.007071 0.050000
      vertex -0.007071 0.007071 0.160000
    endloop
  endfacet
  facet normal -0.634393 0.773010 0.000000
    outer loop
      vertex -0.005556 0.008315 0.050000
      vertex -0.007071 0.007071 0.160000
      vertex -0.005556 0.008315 0.160000
    endloop
  endfacet
  facet normal -0.773010 0.634393 0.000000
    outer loop
      vertex -0.007071 0.007071 0.050000
      vertex -0.008315 0.005556 0.050000
      vertex -0.008315 0.005556 0.160000
    endloop
  endfacet
  facet normal -0.773010 0.634393 0.000000
    outer loop
      vertex -0.007071 0.007071 0.050000
      vertex -0.008315 0.005556 0.160000
      vertex -0.007071 0.007071 0.160000
    endloop
  endfacet
  facet normal -0.881921 0.471397 0.000000
    outer loop
      vertex -0.008315 0.005556 0.050000
      vertex -0.009239 0.003827 0.050000
      vertex -0.009239 0.003827 0.160000
    endloop
  endfacet
  facet normal -0.881921 0.471397 0.000000
    outer loop
      vertex -0.008315 0.005556 0.050000
      vertex -0.009239 0.003827 0.160000
      vertex -0.008315 0.005556 0.160000
    endloop
  endfacet
  facet normal -0.956940 0.290285 0.000000
    outer loop
      vertex -0.009239 0.003827 0.050000
      vertex -0.009808 0.001951 0.050000
      vertex -0.009808 0.001951 0.160000
    endloop
  endfacet
  facet normal -0.956940 0.290285 0.000000
    outer loop
      vertex -0.009239 0.003827 0.050000
      vertex -0.009808 0.001951 0.160000
      vertex -0.009239 0.003827 0.160000
    endloop
  endfacet
  facet normal -0.995185 0.098017 0.000000
    outer loop
      vertex -0.009808 0.001951 0.050000
      vertex -0.010000 0.000000 0.050000
      vertex -0.010000 0.000000 0.160000
    endloop
  endfacet
  facet normal -0.995185 0.098017 0.000000
    outer loop
      vertex -0.009808 0.001951 0.050000
      vertex -0.010000 0.000000 0.160000
      vertex -0.009808 0.001951 0.160000
    endloop
  endfacet
  facet normal -0.995185 -0.098017 0.000000
    outer loop
      vertex -0.010000 0.000000 0.050000
      vertex -0.009808 -0.001951 0.050000
      vertex -0.009808 -0.001951 0.160000
    endloop
  endfacet
  facet normal -0.995185 -0.098017 0.000000
    outer loop
      vertex -0.010000 0.000000 0.050000
      vertex -0.009808 -0.001951 0.160000
      vertex -0.010000 0.000000 0.160000
    endloop
  endfacet
  facet normal -0.956940 -0.290285 0.000000
    outer loop
      vertex -0.009808 -0.001951 0.050000
      vertex -0.009239 -0.003827 0.050000
      vertex -0.009239 -0.003827 0.160000
    endloop
  endfacet
  facet normal -0.956940 -0.290285 0.000000
    outer loop
      vertex -0.009808 -0.001951 0.050000
      vertex -0.009239 -0.003827 0.160000
      vertex -0.009808 -0.001951 0.160000
    endloop
  endfacet
  facet normal -0.881921 -0.471397 0.000000
    outer loop
      vertex -0.009239 -0.003827 0.050000
      vertex -0.008315 -0.005556 0.050000
      vertex -0.008315 -0.005556 0.160000
    endloop
  endfacet
  facet normal -0.881921 -0.471397 0.000000
    outer loop
      vertex -0.009239 -0.003827 0.050000
      vertex -0.008315 -0.005556 0.160000
      vertex -0.009239 -0.003827 0.160000
    endloop
  endfacet
  facet normal -0.773010 -0.634393 0.000000
    outer loop
      vertex -0.008315 -0.005556 0.050000
      vertex -0.007071 -0.007071 0.050000
      vertex -0.007071 -0.007071 0.160000
    endloop
  endfacet
  facet normal -0.773010 -0.634393 0.000000
    outer loop
      vertex -0.008315 -0.005556 0.050000
      vertex -0.007071 -0.007071 0.160000
      vertex -0.008315 -0.005556 0.160000
    endloop
  endfacet
  facet normal -0.634393 -0.773010 0.000000
    outer loop
      vertex -0.007071 -0.007071 0.050000
      vertex -0.005556 -0.008315 0.050000
      vertex -0.005556 -0.008315 0.160000
    endloop
  endfacet
  facet normal -0.634393 -0.773010 0.000000
    outer loop
      vertex -0.007071 -0.007071 0.050000
      vertex -0.005556 -0.008315 0.160000
      vertex -0.007071 -0.007071 0.160000
    endloop
  endfacet
  facet normal -0.471397 -0.881921 0.000000
    outer loop
      vertex -0.005556 -0.008315 0.050000
      vertex -0.003827 -0.009239 0.050000
      vertex -0.003827 -0.009239 0.160000
    endloop
  endfacet
  facet normal -0.471397 -0.881921 0.000000
    outer loop
      vertex -0.005556 -0.008315 0.050000
      vertex -0.003827 -0.009239 0.160000
      vertex -0.005556 -0.008315 0.160000
    endloop
  endfacet
  facet normal -0.290285 -0.956940 0.000000
    outer loop
      vertex -0.003827 -0.009239 0.050000
      vertex -0.001951 -0.009808 0.050000
      vertex -0.001951 -0.009808 0.160000
    endloop
  endfacet
  facet normal -0.290285 -0.956940 0.000000
    outer loop
      vertex -0.003827 -0.009239 0.050000
      vertex -0.001951 -0.009808 0.160000
      vertex -0.003827 -0.009239 0.160000
    endloop
  endfacet
  facet normal -0.098017 -0.995185 0.000000
    outer loop
      vertex -0.001951 -0.009808 0.050000
      vertex -0.000000 -0.010000 0.050000
      vertex -0.000000 -0.010000 0.160000
    endloop
  endfacet
  facet normal -0.098017 -0.995185 0.000000
    outer loop
      vertex -0.001951 -0.009808 0.050000
      vertex -0.000000 -0.010000 0.160000
      vertex -0.001951 -0.009808 0.160000
    endloop
  endfacet
  facet normal 0.098017 -0.995185 0.000000
    outer loop
      vertex -0.000000 -0.010000 0.050000
      vertex 0.001951 -0.009808 0.050000
      vertex 0.001951 -0.009808 0.160000
    endloop
  endfacet
  facet normal 0.098017 -0.995185 0.000000
    outer loop
      vertex -0.000000 -0.010000 0.050000
      vertex 0.001951 -0.009808 0.160000
      vertex -0.000000 -0.010000 0.160000
    endloop
  endfacet
  facet normal 0.290285 -0.956940 0.000000
    outer loop
      vertex 0.001951 -0.009808 0.050000
      vertex 0.003827 -0.009239 0.050000
      vertex 0.003827 -0.009239 0.160000
    endloop
  endfacet
  facet normal 0.290285 -0.956940 0.000000
    outer loop
      vertex 0.001951 -0.009808 0.050000
      vertex 0.003827 -0.009239 0.160000
      vertex 0.001951 -0.009808 0.160000
    endloop
  endfacet
  facet normal 0.471397 -0.881921 0.000000
    outer loop
      vertex 0.003827 -0.009239 0.050000
      vertex 0.005556 -0.008315 0.050000
      vertex 0.005556 -0.008315 0.160000
    endloop
  endfacet
  facet normal 0.471397 -0.881921 0.000000
    outer loop
      vertex 0.003827 -0.009239 0.050000
      vertex 0.005556 -0.008315 0.160000
      vertex 0.003827 -0.009239 0.160000
    endloop
  endfacet
  facet normal 0.634393 -0.773010 0.000000
    outer loop
      vertex 0.005556 -0.008315 0.050000
      vertex 0.007071 -0.007071 0.050000
      vertex 0.007071 -0.007071 0.160000
    endloop
  endfacet
  facet normal 0.634393 -0.773010 0.000000
    outer loop
      vertex 0.005556 -0.008315 0.050000
      vertex 0.007071 -0.007071 0.160000
      vertex 0.005556 -0.008315 0.160000
    endloop
  endfacet
  facet normal 0.773010 -0.634393 0.000000
    outer loop
      vertex 0.007071 -0.007071 0.050000
      vertex 0.008315 -0.005556 0.050000
      vertex 0.008315 -0.005556 0.160000
    endloop
  endfacet
  facet normal 0.773010 -0.634393 0.000000
    outer loop
      vertex 0.007071 -0.007071 0.050000
      vertex 0.008315 -0.005556 0.160000
      vertex 0.007071 -0.007071 0.160000
    endloop
  endfacet
  facet normal 0.881921 -0.471397 0.000000
    outer loop
      vertex 0.008315 -0.005556 0.050000
      vertex 0.009239 -0.003827 0.050000
      vertex 0.009239 -0.003827 0.160000
    endloop
  endfacet
  facet normal 0.881921 -0.471397 0.000000
    outer loop
      vertex 0.008315 -0.005556 0.050000
      vertex 0.009239 -0.003827 0.160000
      vertex 0.008315 -0.005556 0.160000
    endloop
  endfacet
  facet normal 0.956940 -0.290285 0.000000
    outer loop
      vertex 0.009239 -0.003827 0.050000
      vertex 0.009808 -0.001951 0.050000
      vertex 0.009808 -0.001951 0.160000
    endloop
  endfacet
  facet normal 0.956940 -0.290285 0.000000
    outer loop
      vertex 0.009239 -0.003827 0.050000
      vertex 0.009808 -0.001951 0.160000
      vertex 0.009239 -0.003827 0.160000
    endloop
  endfacet
  facet normal 0.995185 -0.098017 0.000000
    outer loop
      vertex 0.009808 -0.001951 0.050000
      vertex 0.010000 0.000000 0.050000
      vertex 0.010000 0.000000 0.160000
    endloop
  endfacet
  facet normal 0.995185 -0.098017 0.000000
    outer loop
      vertex 0.009808 -0.001951 0.050000
      vertex 0.010000 0.000000 0.160000
      vertex 0.009808 -0.001951 0.160000
    endloop
  endfacet
  facet normal 0.965744 0.095117 0.241436
    outer loop
      vertex 0.010000 0.000000 0.160000
      vertex 0.009808 0.001951 0.160000
      vertex 0.000000 0.000000 0.200000
    endloop
  endfacet
  facet normal 0.928631 0.281697 0.241436
    outer loop
      vertex 0.009808 0.001951 0.160000
      vertex 0.009239 0.003827 0.160000
      vertex 0.000000 0.000000 0.200000
    endloop
  endfacet
  facet normal 0.855831 0.457451 0.241436
    outer loop
      vertex 0.009239 0.003827 0.160000
      vertex 0.008315 0.005556 0.160000
      vertex 0.000000 0.000000 0.200000
    endloop
  endfacet
  facet normal 0.750142 0.615626 0.241436
    outer loop
      vertex 0.008315 0.005556 0.160000
      vertex 0.007071 0.007071 0.160000
      vertex 0.000000 0.000000 0.200000
    endloop
  endfacet
  facet normal 0.615626 0.750142 0.241436
    outer loop
      vertex 0.007071 0.007071 0.160000
      vertex 0.005556 0.008315 0.160000
      vertex 0.000000 0.000000 0.200000
    endloop
  endfacet
  facet normal 0.457451 0.855831 0.241436
    outer loop
      vertex 0.005556 0.008315 0.160000
      vertex 0.003827 0.009239 0.160000
      vertex 0.000000 0.000000 0.200000
    endloop
  endfacet
  facet normal 0.281697 0.928631 0.241436
    outer loop
      vertex 0.003827 0.009239 0.160000
      vertex 0.001951 0.009808 0.160000
      vertex 0.000000 0.000000 0.200000
    endloop
  endfacet
  facet normal 0.095117 0.965744 0.241436
    outer loop
      vertex 0.001951 0.009808 0.160000
      vertex 0.000000 0.010000 0.160000
      vertex 0.000000 0.000000 0.200000
    endloop
  endfacet
  facet normal -0.095117 0.965744 0.241436
    outer loop
      vertex 0.000000 0.010000 0.160000
      vertex -0.001951 0.009808 0.160000
      vertex 0.000000 0.000000 0.200000
    endloop
  endfacet
  facet normal -0.281697 0.928631 0.241436
    outer loop
      vertex -0.001951 0.009808 0.160000
      vertex -0.003827 0.009239 0.160000
      vertex 0.000000 0.000000 0.200000
    endloop
  endfacet
  facet normal -0.457451 0.855831 0.241436
    outer loop
      vertex -0.003827 0.009239 0.160000
      vertex -0.005556 0.008315 0.160000
      vertex 0.000000 0.000000 0.200000
    endloop
  endfacet
  facet normal -0.615626 0.750142 0.241436
    outer loop
      vertex -0.005556 0.008315 0.160000
      vertex -0.007071 0.007071 0.160000
      vertex 0.000000 0.000000 0.200000
    endloop
  endfacet
  facet normal -0.750142 0.615626 0.241436
    outer loop
      vertex -0.007071 0.007071 0.160000
      vertex -0.008315 0.005556 0.160000
      vertex 0.000000 0.000000 0.200000
    endloop
  endfacet
  facet normal -0.855831 0.457451 0.241436
    outer loop
      vertex -0.008315 0.005556 0.160000
      vertex -0.009239 0.003827 0.160000
      vertex 0.000000 0.000000 0.200000
    endloop
  endfacet
  facet normal -0.928631 0.281697 0.241436
    outer loop
      vertex -0.009239 0.003827 0.160000
      vertex -0.009808 0.001951 0.160000
      vertex 0.000000 0.000000 0.200000
    endloop
  endfacet
  facet normal -0.965744 0.095117 0.241436
    outer loop
      vertex -0.009808 0.001951 0.160000
      vertex -0.010000 0.000000 0.160000
      vertex 0.000000 0.000000 0.200000
    endloop
  endfacet
  facet normal -0.965744 -0.095117 0.241436
    outer loop
      vertex -0.010000 0.000000 0.160000
      vertex -0.009808 -0.001951 0.160000
      vertex 0.000000 0.000000 0.200000
    endloop
  endfacet
  facet normal -0.928631 -0.281697 0.241436
    outer loop
      vertex -0.009808 -0.001951 0.160000
      vertex -0.009239 -0.003827 0.160000
      vertex 0.000000 0.000000 0.200000
    endloop
  endfacet
  facet normal -0.855831 -0.457451 0.241436
    outer loop
      vertex -0.009239 -0.003827 0.160000
      vertex -0.008315 -0.005556 0.160000
      vertex 0.000000 0.000000 0.200000
    endloop
  endfacet
  facet normal -0.750142 -0.615626 0.241436
    outer loop
      vertex -0.008315 -0.005556 0.160000
      vertex -0.007071 -0.007071 0.160000
      vertex 0.000000 0.000000 0.200000
    endloop
  endfacet
  facet normal -0.615626 -0.750142 0.241436
    outer loop
      vertex -0.007071 -0.007071 0.160000
      vertex -0.005556 -0.008315 0.160000
      vertex 0.000000 0.000000 0.200000
    endloop
  endfacet
  facet normal -0.457451 -0.855831 0.241436
    outer loop
      vertex -0.005556 -0.008315 0.160000
      vertex -0.003827 -0.009239 0.160000
      vertex 0.000000 0.000000 0.200000
    endloop
  endfacet
  facet normal -0.281697 -0.928631 0.241436
    outer loop
      vertex -0.003827 -0.009239 0.160000
      vertex -0.001951 -0.009808 0.160000
      vertex 0.000000 0.000000 0.200000
    endloop
  endfacet
  facet normal -0.095117 -0.965744 0.241436
    outer loop
      vertex -0.001951 -0.009808 0.160000
      vertex -0.000000 -0.010000 0.160000
      vertex 0.000000 0.000000 0.200000
    endloop
  endfacet
  facet normal 0.095117 -0.965744 0.241436
    outer loop
      vertex -0.000000 -0.010000 0.160000
      vertex 0.001951 -0.009808 0.160000
      vertex 0.000000 0.000000 0.200000
    endloop
  endfacet
  facet normal 0.281697 -0.928631 0.241436
    outer loop
      vertex 0.001951 -0.009808 0.160000
      vertex 0.003827 -0.009239 0.160000
      vertex 0.000000 0.000000 0.200000
    endloop
  endfacet
  facet normal 0.457451 -0.855831 0.241436
    outer loop
      vertex 0.003827 -0.009239 0.160000
      vertex 0.005556 -0.008315 0.160000
      vertex 0.000000 0.000000 0.200000
    endloop
  endfacet
  facet normal 0.615626 -0.750142 0.241436
    outer loop
      vertex 0.005556 -0.008315 0.160000
      vertex 0.007071 -0.007071 0.160000
      vertex 0.000000 0.000000 0.200000
    endloop
  endfacet
  facet normal 0.750142 -0.615626 0.241436
    outer loop
      vertex 0.007071 -0.007071 0.160000
      vertex 0.008315 -0.005556 0.160000
      vertex 0.000000 0.000000 0.200000
    endloop
  endfacet
  facet normal 0.855831 -0.457451 0.241436
    outer loop
      vertex 0.008315 -0.005556 0.160000
      vertex 0.009239 -0.003827 0.160000
      vertex 0.000000 0.000000 0.200000
    endloop
  endfacet
  facet normal 0.928631 -0.281697 0.241436
    outer loop
      vertex 0.009239 -0.003827 0.160000
      vertex 0.009808 -0.001951 0.160000
      vertex 0.000000 0.000000 0.200000
    endloop
  endfacet
  facet normal 0.965744 -0.095117 0.241436
    outer loop
      vertex 0.009808 -0.001951 0.160000
      vertex 0.010000 0.000000 0.160000
      vertex 0.000000 0.000000 0.200000
    endloop
  endfacet
endsolid probe_yellow_green
